# xmcd
#
# Track frame offsets:
#	150
#	19053
#	36052
#	51329
#	67939
#	87940
#	101839
#	113579
#	128541
#	148165
#	167068
#	184067
#	199344
#	215954
#	235955
#	249854
#	261594
#	276556
#
# Disc length: 3949 seconds
#
# Revision: 1
# Processed by: cddbd v1.5.2PL0 Copyright (c) Steve Scherf et al.
# Submitted via: audiograbber 1.83.01
#
DISCID=120f6b12
DTITLE=Various Artist - PHMC1013
DYEAR=2013
DGENRE=Country Karaoke
TTITLE0=LeAnn Rimes, Rob Thomas and Jeff Beck - Gasoline And Matches
TTITLE1=Lathan Moore - Burn These Memories Down
TTITLE2=Taylor Made - That's How I Roll
TTITLE3=Kayla Calabrese - Kiss Me
TTITLE4=Dawday - Back In The Day
TTITLE5=Summerlyn Powers - Alabama Kinda Girl
TTITLE6=Stephanie Quayle - Stand Back
TTITLE7=Shannon and Heather Slaughter - If I Were A Carpenter
TTITLE8=LeAnn Rimes - Where I Stood
TTITLE9=LeAnn Rimes, Rob Thomas and Jeff Beck - Gasoline And Matches (Vocals)
TTITLE10=Lathan Moore - Burn These Memories Down (Vocals)
TTITLE11=Taylor Made - That's How I Roll (Vocals)
TTITLE12=Kayla Calabrese - Kiss Me (Vocals)
TTITLE13=Dawday - Back In The Day (Vocals)
TTITLE14=Summerlyn Powers - Alabama Kinda Girl (Vocals)
TTITLE15=Stephanie Quayle - Stand Back (Vocals)
TTITLE16=Shannon and Heather Slaughter - If I Were A Carpenter (Vocals)
TTITLE17=LeAnn Rimes - Where I Stood (Vocals)
EXTD=
EXTT0=
EXTT1=
EXTT2=
EXTT3=
EXTT4=
EXTT5=
EXTT6=
EXTT7=
EXTT8=
EXTT9=
EXTT10=
EXTT11=
EXTT12=
EXTT13=
EXTT14=
EXTT15=
EXTT16=
EXTT17=
PLAYORDER=
